<?xml version="1.0" encoding="UTF-8"?>
<svg width="240px" height="240px" viewBox="0 0 240 240" version="1.1" xmlns="http://www.w3.org/2000/svg" xmlns:xlink="http://www.w3.org/1999/xlink">
    <g id="Logos" stroke="none" stroke-width="1" fill="none" fill-rule="evenodd">
        <g id="Jämsän-Seutu-Favicon-Logos" transform="translate(-1034.000000, -343.000000)">
            <g id="logos/favicon/favicon-240" transform="translate(1034.000000, 343.000000)">
                <rect id="Rectangle" fill="#004E9B" x="0" y="0" width="240" height="240"></rect>
                <g id="Group" transform="translate(32.307692, 66.461538)" fill="#FFFFFF" fill-rule="nonzero">
                    <g id="logos/al-logo-shortened-neg">
                        <path d="M39.9363351,11.7535574 L39.9363351,86.6397579 C39.9363351,95.7277295 36.682414,97.8805763 31.2657857,97.8805763 C27.4695445,97.8805763 24.3635289,96.2010271 23.3314771,94.2223801 L23.3314771,73.0751797 L1.1719457,74.5838159 L1.1719457,84.6775449 C1.1719457,96.2010271 16.619854,106.284896 31.4104045,106.284896 C52.2848014,106.284896 72.6760403,98.7745829 72.6760403,71.9313772 L72.6760403,11.7535574 L79.8609611,11.7535574 L79.8609611,3.07972129 L32.2781168,3.07972129 L32.2781168,11.7535574 L39.9363351,11.7535574 Z" id="Path"></path>
                        <path d="M128.219488,97.9528857 C116.866918,97.9528857 105.721417,90.5707576 100.383672,76.3455348 L90.750093,76.3455348 L90.750093,104.17149 L98.8848958,104.17149 L103.670461,98.0810704 C108.248958,102.396624 116.866918,106.83379 129.45532,106.83379 C153.320695,106.83379 169.455542,92.4869556 169.455542,72.9239875 L169.455542,68.8713766 C169.455542,53.6141021 159.81539,46.0906421 140.531799,38.9813175 L130.608983,35.2902534 C122.204664,32.1579435 116.538239,28.5917775 116.538239,22.2417011 L116.538239,19.7043 C116.538239,13.6237404 121.879272,8.9006246 131.240047,8.9006246 C142.664925,8.9006246 153.126775,15.6746967 158.191716,27.5695861 L167.812148,27.5695861 L167.812148,2.68201982 L159.660911,2.68201982 L155.358504,8.26956111 C149.751242,3.55630569 141.402798,-1.18959644e-14 129.576931,-1.18959644e-14 C106.865219,-1.18959644e-14 92.2357216,12.7231602 92.2357216,28.4537323 L92.2357216,32.5490714 C92.2357216,47.8786553 101.110052,57.1802682 120.071538,64.1482608 L129.442173,67.5698082 C139.223657,71.1195403 144.965677,73.9396053 144.965677,81.7983177 L144.965677,84.3192849 C144.965677,92.60528 138.470982,97.9430253 128.203054,97.9430253" id="Path"></path>
                    </g>
                </g>
            </g>
        </g>
    </g>
</svg>