<?xml version="1.0" encoding="UTF-8"?>
<svg width="240px" height="240px" viewBox="0 0 240 240" version="1.1" xmlns="http://www.w3.org/2000/svg" xmlns:xlink="http://www.w3.org/1999/xlink">
    <g id="Logos" stroke="none" stroke-width="1" fill="none" fill-rule="evenodd">
        <g id="Merikarvia-lehti-Favicon-Logos" transform="translate(-1034.000000, -343.000000)">
            <g id="logos/favicon/favicon-240" transform="translate(1034.000000, 343.000000)">
                <rect id="Rectangle" fill="#004E9B" x="0" y="0" width="240" height="240"></rect>
                <g id="Group" transform="translate(30.000000, 82.615385)" fill="#FFFFFF" fill-rule="nonzero">
                    <g id="logos/al-logo-shortened-neg">
                        <path d="M0.514285714,74.8051948 L19.6769996,74.8051948 L19.6769996,68.5131691 L18.1004976,68.5131691 C15.7374924,68.5131691 14.164486,66.9296759 14.164486,64.5631751 L14.164486,10.4867096 L32.5337055,72.7078529 L46.4460736,72.7078529 L65.3431242,10.4867096 L65.3431242,68.5131691 L60.0997694,68.5131691 L60.0997694,74.8051948 L95.2652021,74.8051948 L95.2652021,68.5131691 L89.756184,68.5131691 L89.756184,6.29202573 L95.2652021,6.29202573 L95.2652021,0 L61.1449448,0 L47.5122224,42.7822794 L34.634543,0 L0.514285714,0 L0.514285714,6.29202573 L6.03029494,6.29202573 L6.03029494,64.5596796 C6.03029494,66.9261804 4.45029737,68.5096735 2.08729215,68.5096735 L0.514285714,68.5096735 L0.514285714,74.8051948 Z" id="Path"></path>
                        <path d="M164.358636,10.4867096 C166.574827,8.47326132 168.997257,6.45282194 173.031145,6.45282194 L174.244107,6.45282194 L174.244107,0 L151.051001,0 L151.051001,6.44932637 L154.280908,6.44932637 C157.101833,6.44932637 157.706566,8.66901323 155.679136,10.483214 L130.86059,34.0748149 L130.86059,6.45981308 L136.306688,6.45981308 L136.306688,0 L101.046875,0 L101.046875,6.44932637 L106.496468,6.44932637 L106.496468,68.5586115 L101.046875,68.5586115 L101.046875,74.8051948 L136.334652,74.8051948 L136.334652,68.5586115 L130.899041,68.5586115 L130.899041,42.3418376 L134.530938,39.1119311 L153.067945,74.8051948 L179.487462,74.8051948 L179.487462,68.5586115 L175.446583,68.5586115 L154.473164,29.4466804 L144.398932,29.4466804 L164.358636,10.4867096 Z" id="Path"></path>
                    </g>
                </g>
            </g>
        </g>
    </g>
</svg>