<svg width="148" height="34" viewBox="0 0 148 34" fill="none" xmlns="http://www.w3.org/2000/svg">
<mask id="mask0_148_2906" style="mask-type:luminance" maskUnits="userSpaceOnUse" x="0" y="0" width="34" height="34">
<path d="M34 0H0V34H34V0Z" fill="white"/>
</mask>
<g mask="url(#mask0_148_2906)">
<path d="M16.9811 34C15.3909 34 13.8991 33.3867 12.7773 32.2775L7.20908 26.7247C4.60032 24.1351 3.159 20.6879 3.15421 17.0203C3.1566 13.3263 4.60032 9.86956 7.21388 7.27517L12.9647 1.5426C13.0944 1.41564 13.2361 1.30065 13.3875 1.20243C15.732 -0.567886 19.1047 -0.371449 21.2066 1.71269L26.7749 7.26559C29.2491 9.71864 30.6857 12.9526 30.832 16.3879C30.8392 16.4621 30.8441 16.5388 30.8441 16.6154L30.8466 16.9029C30.8466 16.9269 30.8466 16.9508 30.8466 16.9748L30.8392 17.3173C30.748 20.8724 29.3068 24.1974 26.7843 26.6983L20.9879 32.4764C20.8462 32.6154 20.69 32.7375 20.5219 32.843C19.4938 33.5952 18.2543 34 16.9811 34Z" fill="white"/>
<path d="M24.9587 9.07658L24.9563 9.0742L19.2726 3.40631C18.0187 2.15582 15.9841 2.15582 14.7277 3.40631C13.4738 4.65679 13.4738 6.68581 14.7277 7.9387L20.4089 13.6042C22.2874 15.4775 22.2874 18.5271 20.4089 20.4028L18.4776 22.3289L20.7501 24.595C21.5716 25.4142 22.0976 26.4827 22.2489 27.6325L24.9563 24.9327C29.3426 20.5537 29.3451 13.4581 24.9587 9.07658Z" fill="#316DF4"/>
<path d="M19.2737 26.0682L13.5926 20.4027C11.714 18.5294 11.714 15.4798 13.5926 13.6041L15.5239 11.6781L13.2514 9.41187C12.4299 8.5926 11.9038 7.52417 11.7525 6.37431L9.04523 9.0741C4.65646 13.4532 4.65406 20.5489 9.04044 24.9303L9.04283 24.9326L14.7264 30.6006C15.9803 31.851 18.015 31.851 19.2713 30.6006C20.5276 29.3477 20.5276 27.3186 19.2737 26.0682Z" fill="#10182E"/>
</g>
<path d="M143.615 24.021V16.6033L141.255 21.8195H139.192L136.832 16.6033V24.021H132.965V9.93932H137.189L140.224 16.5636L143.278 9.93932H147.483V24.021H143.615Z" fill="#10182E"/>
<path d="M124.374 20.7088C124.823 20.7088 125.207 20.6097 125.524 20.4113C125.841 20.213 126.099 19.9551 126.297 19.6378C126.496 19.3073 126.641 18.9304 126.734 18.5073C126.826 18.0842 126.873 17.6413 126.873 17.1785V9.93932H130.74V17.1785C130.74 18.1569 130.614 19.0759 130.363 19.9353C130.112 20.7815 129.722 21.5154 129.193 22.1368C128.664 22.7583 127.996 23.2475 127.19 23.6045C126.397 23.9615 125.458 24.14 124.374 24.14C123.25 24.14 122.284 23.9549 121.478 23.5847C120.685 23.2012 120.03 22.6922 119.514 22.0575C118.999 21.4228 118.622 20.689 118.384 19.856C118.146 19.0098 118.027 18.1173 118.027 17.1785V9.93932H121.894V17.1785C121.894 17.6413 121.941 18.0908 122.033 18.5272C122.126 18.9503 122.271 19.3271 122.47 19.6577C122.668 19.975 122.919 20.2328 123.223 20.4311C123.541 20.6163 123.924 20.7088 124.374 20.7088Z" fill="#10182E"/>
<path d="M111.931 24.021V9.93932H115.798V24.021H111.931Z" fill="#10182E"/>
<path d="M98.5469 24.021V9.93932H105.013C105.7 9.93932 106.335 10.0848 106.917 10.3756C107.498 10.6533 107.994 11.0235 108.404 11.4863C108.827 11.9359 109.158 12.4581 109.396 13.0531C109.634 13.6349 109.753 14.2233 109.753 14.8183C109.753 15.6381 109.574 16.405 109.217 17.119C108.86 17.8198 108.364 18.3949 107.73 18.8445L110.705 24.021H106.341L103.862 19.6973H102.414V24.021H98.5469ZM102.414 16.3257H104.854C105.092 16.3257 105.31 16.1934 105.508 15.929C105.72 15.6645 105.826 15.2943 105.826 14.8183C105.826 14.3291 105.707 13.9589 105.469 13.7076C105.231 13.4432 104.993 13.311 104.755 13.311H102.414V16.3257Z" fill="#10182E"/>
<path d="M96.7484 20.6493V24.021H86.7127V9.93932H96.5699V13.311H90.5802V15.2943H95.6972V18.428H90.5802V20.6493H96.7484Z" fill="#10182E"/>
<path d="M75.6278 17.0991V24.021H71.7603V9.93932H74.7749L80.4274 17.0991V9.93932H84.2949V24.021H81.2208L75.6278 17.0991Z" fill="#10182E"/>
<path d="M62.9414 24.14C61.8704 24.14 60.8986 23.935 60.0259 23.5252C59.1532 23.1153 58.4062 22.5798 57.7847 21.9187C57.1633 21.2443 56.6807 20.4774 56.3369 19.618C55.9931 18.7585 55.8212 17.8727 55.8212 16.9603C55.8212 16.0348 55.9997 15.1423 56.3567 14.2828C56.7137 13.4234 57.2096 12.6697 57.8442 12.0218C58.4921 11.3607 59.2524 10.8384 60.1251 10.455C61.011 10.0583 61.9762 9.85999 63.0207 9.85999C64.0917 9.85999 65.0636 10.0649 65.9362 10.4748C66.8089 10.8847 67.556 11.4268 68.1774 12.1012C68.7988 12.7755 69.2748 13.5424 69.6054 14.4018C69.9492 15.2613 70.1211 16.1405 70.1211 17.0397C70.1211 17.9652 69.9426 18.8577 69.5856 19.7172C69.2286 20.5634 68.7327 21.317 68.0981 21.9782C67.4634 22.626 66.7031 23.1483 65.8172 23.545C64.9446 23.9417 63.986 24.14 62.9414 24.14ZM59.7482 17C59.7482 17.476 59.8143 17.9388 59.9466 18.3883C60.0788 18.8247 60.2771 19.2147 60.5416 19.5585C60.806 19.9023 61.1366 20.1799 61.5332 20.3915C61.9431 20.603 62.4257 20.7088 62.9811 20.7088C63.5364 20.7088 64.019 20.603 64.4289 20.3915C64.8388 20.1667 65.1693 19.8824 65.4206 19.5387C65.685 19.1817 65.8767 18.7784 65.9957 18.3288C66.128 17.8793 66.1941 17.4231 66.1941 16.9603C66.1941 16.4843 66.128 16.0282 65.9957 15.5918C65.8635 15.1423 65.6586 14.7522 65.3809 14.4217C65.1165 14.0779 64.7793 13.8068 64.3694 13.6085C63.9727 13.3969 63.5033 13.2912 62.9612 13.2912C62.4059 13.2912 61.9233 13.3969 61.5134 13.6085C61.1167 13.82 60.7862 14.1043 60.5217 14.4613C60.2573 14.8051 60.059 15.2018 59.9267 15.6513C59.8077 16.0877 59.7482 16.5372 59.7482 17Z" fill="#10182E"/>
<path d="M50.3172 24.021V16.6033L47.957 21.8195H45.8943L43.5342 16.6033V24.021H39.6667V9.93932H43.8912L46.9257 16.5636L49.98 9.93932H54.1847V24.021H50.3172Z" fill="#10182E"/>
</svg>
