<svg width="294" height="94" viewBox="0 0 294 94" fill="none" xmlns="http://www.w3.org/2000/svg">
<g clip-path="url(#clip0_60_211)">
<mask id="mask0_60_211" style="mask-type:luminance" maskUnits="userSpaceOnUse" x="0" y="0" width="294" height="94">
<path d="M293.658 0H0V93.6995H293.658V0Z" fill="white"/>
</mask>
<g mask="url(#mask0_60_211)">
<path fill-rule="evenodd" clip-rule="evenodd" d="M99.1395 30.0026H107.985L94.0971 71.852H85.2514L89.0546 60.4346L77.4741 29.9597H86.6189L93.1142 48.2017L99.1823 29.9597L99.1395 30.0026Z" fill="#0C1031"/>
<path d="M16.9648 0H68.8849C71.1924 0 73.3718 0.472146 75.3375 1.28767C77.4314 2.14612 79.2689 3.43379 80.85 4.979C82.4311 6.56712 83.6703 8.41279 84.525 10.516C85.3369 12.5333 85.807 14.7224 85.807 16.9973V23.6932H77.6023V16.9973C77.6023 15.7954 77.3459 14.6795 76.9186 13.6493C76.4913 12.5763 75.8075 11.589 74.9956 10.8164C74.1837 10.0009 73.2436 9.35708 72.1753 8.88493C71.1497 8.45571 70.0387 8.19817 68.8421 8.19817H16.9648C15.7683 8.19817 14.6573 8.45571 13.6317 8.88493C12.5634 9.31416 11.5805 10.0009 10.8113 10.8164C9.99941 11.632 9.35842 12.5763 8.88836 13.6493C8.46104 14.6795 8.20464 15.7954 8.20464 16.9973V76.6594C8.20464 77.8612 8.46104 78.9772 8.88836 80.0073C9.31569 81.0804 9.99941 82.0676 10.8113 82.8402C11.6232 83.6557 12.5634 84.2995 13.6317 84.7717C14.6573 85.2009 15.7683 85.4585 16.9648 85.4585H76.3631C77.5596 85.4585 78.6706 85.2009 79.6962 84.7717C80.7645 84.3425 81.7474 83.6557 82.5166 82.8402C83.2857 82.0247 83.7131 81.4237 84.1404 80.6082C84.5677 79.7927 84.8241 78.9342 84.995 77.99V77.6466H93.2852V78.1187C93.0715 80.1361 92.5587 82.0676 91.7468 83.8274C90.8921 85.6301 89.7384 87.3041 88.3282 88.7206C86.7471 90.3087 84.9096 91.5534 82.8157 92.4119C80.8073 93.2274 78.6279 93.6995 76.3631 93.6995H16.9648C14.7 93.6995 12.4779 93.2274 10.5122 92.4119C8.46104 91.5534 6.58081 90.2658 4.9997 88.7206C3.4186 87.1324 2.17935 85.2868 1.3247 83.1836C0.512783 81.1662 0.0427246 78.9772 0.0427246 76.7023V17.0402C0.0427246 14.7653 0.512783 12.5333 1.3247 10.5589C2.17935 8.49863 3.46133 6.61005 4.9997 5.02192C6.58081 3.43379 8.41831 2.18904 10.5122 1.33059C12.4779 0.472146 14.6573 0 16.9648 0Z" fill="#0C1031"/>
<path d="M207.766 62.0657C205.757 62.0657 204.005 61.7223 202.424 60.9927C200.886 60.3059 199.647 59.2328 198.749 57.8593C197.852 56.4858 197.382 54.726 197.382 52.6657C197.382 50.6054 197.681 49.4465 198.322 48.2447C198.963 47.0429 199.817 46.0986 200.929 45.3689C202.04 44.6392 203.279 44.0813 204.689 43.7379C206.099 43.3516 207.552 43.094 209.133 42.9653C210.971 42.7936 212.424 42.579 213.535 42.4073C214.646 42.2356 215.458 41.9781 215.97 41.6347C216.483 41.2913 216.74 40.7762 216.74 40.1324V40.0036C216.74 38.716 216.355 37.6858 215.543 36.9991C214.731 36.2694 213.577 35.926 212.124 35.926C210.672 35.926 209.304 36.2694 208.407 36.9561C207.467 37.6429 206.868 38.5013 206.569 39.5315H198.493C198.664 37.4712 199.604 35.4968 200.971 33.9086C202.168 32.4922 203.706 31.4191 205.629 30.6895C207.509 29.9169 209.731 29.5735 212.21 29.5735C214.688 29.5735 215.629 29.7881 217.21 30.1744C218.791 30.5607 220.244 31.2045 221.483 32.063C222.722 32.9214 223.705 34.0374 224.431 35.368C225.158 36.6986 225.5 38.3296 225.5 40.1753V61.379H217.252V57.0009C215.586 60.4776 211.483 61.9799 207.851 61.9799L207.766 62.0657ZM210.287 56.0137C211.569 56.0137 212.68 55.7561 213.663 55.2411C214.646 54.726 215.415 54.0392 215.97 53.1808C216.526 52.3223 216.782 51.3351 216.782 50.2191V46.8712C216.526 47.0429 216.141 47.2146 215.671 47.3434C215.201 47.4721 214.688 47.6009 214.09 47.7297C213.492 47.8584 212.936 47.9443 212.338 48.0301C211.74 48.116 211.227 48.2018 210.757 48.2876C209.731 48.4593 208.834 48.6739 208.065 49.0173C207.296 49.3607 206.697 49.7899 206.313 50.3479C205.885 50.9059 205.672 51.5927 205.672 52.4082C205.672 53.61 206.099 54.5114 206.954 55.1123C207.808 55.7561 208.92 56.0566 210.244 56.0566L210.287 56.0137Z" fill="#0C1031"/>
<path d="M263.104 71.852V30.0027H271.651V35.2822C273.36 31.6338 277.035 29.5735 280.967 29.5735C284.898 29.5735 285.368 30.1744 287.291 31.3762C289.214 32.5781 290.752 34.3808 291.906 36.7415C293.06 39.1452 293.658 42.1497 293.658 45.7552C293.658 49.3607 293.103 52.2365 291.992 54.6402C290.881 57.0438 289.342 58.8895 287.419 60.0913C281.778 63.7397 275.369 62.2374 271.822 56.4V71.852H263.147H263.104ZM271.608 45.7552C271.608 47.6009 271.865 49.2749 272.377 50.6484C272.89 52.0219 273.659 53.1379 274.599 53.9105C275.582 54.6831 276.779 55.0694 278.189 55.0694C279.599 55.0694 280.796 54.6831 281.779 53.8675C282.761 53.0949 283.488 51.979 284.001 50.6054C284.513 49.189 284.77 47.6009 284.77 45.7552C284.77 43.9096 284.513 42.3644 284.001 40.9479C283.488 39.5744 282.761 38.5013 281.779 37.7287C280.796 36.9561 279.599 36.5698 278.189 36.5698C276.779 36.5698 275.582 36.9561 274.599 37.6858C273.617 38.4155 272.89 39.4886 272.377 40.905C271.865 42.2785 271.608 43.9096 271.608 45.7981V45.7552Z" fill="#0C1031"/>
<path d="M249.644 48.073V30.0027H258.318V61.4648H249.985V55.7561C248.276 59.9196 244.601 61.894 240.157 61.894C235.713 61.894 236.226 61.4219 234.644 60.4347C233.063 59.4904 231.824 58.1168 230.927 56.357C230.029 54.5972 229.602 52.494 229.559 50.0474V30.0027H238.234V48.4593C238.234 50.305 238.747 51.7643 239.73 52.8803C240.713 53.9534 242.037 54.5114 243.661 54.5114C245.285 54.5114 245.669 54.2538 246.61 53.7817C247.507 53.3095 248.276 52.5799 248.832 51.6356C249.387 50.6913 249.644 49.4894 249.644 48.1159V48.073Z" fill="#0C1031"/>
<path d="M186.143 61.4649L177.597 48.7599L175.246 51.464V61.4649H166.572V19.5298H175.246V42.3216L185.758 30.0028H195.715L184.092 43.6092L196.313 61.422H186.143V61.4649Z" fill="#0C1031"/>
<path d="M147.299 22.4914H155.974V30.0457H161.871V36.6129H155.974V51.8503C155.974 52.6658 156.102 53.2667 156.358 53.7389C156.615 54.1681 156.957 54.5115 157.384 54.6832C157.811 54.8549 158.324 54.9407 158.922 54.9407C159.521 54.9407 159.734 54.9407 160.162 54.812C160.546 54.7261 160.888 54.6832 161.102 54.6403L162.469 61.1215C162.042 61.2503 161.401 61.422 160.632 61.5937C159.82 61.7654 158.88 61.8941 157.769 61.9371C155.675 62.0229 153.837 61.7225 152.256 61.0786C150.675 60.4348 149.478 59.4476 148.581 58.0741C147.726 56.7435 147.299 55.0266 147.299 52.9663V36.5699H143.026V30.0028H147.299V22.4485V22.4914Z" fill="#0C1031"/>
<path d="M119.694 43.2657V61.4648H111.019V30.0027H119.309V35.5397C121.104 31.4621 124.694 29.5735 129.095 29.5735C133.496 29.5735 133.155 30.0456 134.778 30.9899C136.402 31.9342 137.642 33.3077 138.539 35.0675C139.436 36.8274 139.864 38.9306 139.864 41.3771V61.4219H131.189V42.9653C131.189 41.0338 130.719 39.5315 129.736 38.4584C128.753 37.3854 127.386 36.8274 125.634 36.8274C123.882 36.8274 123.454 37.0849 122.557 37.6C121.66 38.115 120.976 38.8447 120.463 39.789C119.95 40.7333 119.694 41.8922 119.694 43.2657Z" fill="#0C1031"/>
<path d="M30.7675 70.9079C35.5108 70.9079 39.3567 67.0449 39.3567 62.2805C39.3567 57.5161 35.5108 53.6531 30.7675 53.6531C26.0242 53.6531 22.1782 57.5161 22.1782 62.2805C22.1782 67.0449 26.0242 70.9079 30.7675 70.9079Z" fill="#FFC01D"/>
</g>
<path d="M72.6453 32.4494C70.8078 30.6037 68.4575 29.6594 65.509 29.6594C62.5604 29.6594 57.1334 31.548 55.7232 35.6256C55.2104 33.78 54.2276 32.3206 52.6892 31.2905C51.1936 30.2174 49.356 29.7023 47.2194 29.7023C42.9889 29.7023 39.6985 31.7626 38.1174 35.6686V30.1316H29.8273V49.0174C30.1264 49.0174 30.4255 49.0174 30.7247 49.0174C33.6305 49.0174 36.3226 49.9617 38.502 51.5498V42.7507C38.502 41.5918 38.7156 40.5617 39.1857 39.7033C39.6558 38.8448 40.254 38.1581 41.0232 37.6859C41.7924 37.2138 42.647 36.9562 43.6299 36.9562C45.0401 36.9562 46.1938 37.4284 47.0912 38.3297C47.9459 39.2311 48.4159 40.4759 48.4159 42.0211V61.6366H56.8342V42.4074C56.8342 40.7763 57.2616 39.4457 58.159 38.4585C59.0563 37.4713 60.2528 36.9562 61.834 36.9562C63.4151 36.9562 64.3979 37.3855 65.2953 38.2439C66.2354 39.1023 66.6627 40.4329 66.6627 42.1928V61.6366H75.3374V40.4759C75.3374 37.085 74.4401 34.4238 72.6026 32.5781L72.6453 32.4494Z" fill="#0C1031"/>
</g>
<defs>
<clipPath id="clip0_60_211">
<rect width="294" height="94" fill="white"/>
</clipPath>
</defs>
</svg>
